<svg xmlns="http://www.w3.org/2000/svg" xmlns:xlink="http://www.w3.org/1999/xlink" width="56" zoomAndPan="magnify" viewBox="0 0 42 40.499999" height="54" preserveAspectRatio="xMidYMid meet" version="1.0"><defs><clipPath id="1e5aff6e9a"><path d="M 2.085938 9.867188 L 17.558594 9.867188 L 17.558594 25.339844 L 2.085938 25.339844 Z M 2.085938 9.867188 " clip-rule="nonzero"/></clipPath><clipPath id="ffaac64ce2"><path d="M 9.820312 9.867188 C 5.550781 9.867188 2.085938 13.332031 2.085938 17.605469 C 2.085938 21.875 5.550781 25.339844 9.820312 25.339844 C 14.09375 25.339844 17.558594 21.875 17.558594 17.605469 C 17.558594 13.332031 14.09375 9.867188 9.820312 9.867188 Z M 9.820312 9.867188 " clip-rule="nonzero"/></clipPath><clipPath id="52c784c376"><path d="M 24.183594 9.039062 L 39.652344 9.039062 L 39.652344 24.511719 L 24.183594 24.511719 Z M 24.183594 9.039062 " clip-rule="nonzero"/></clipPath><clipPath id="2d8d632c9f"><path d="M 31.917969 9.039062 C 27.644531 9.039062 24.183594 12.503906 24.183594 16.777344 C 24.183594 21.050781 27.644531 24.511719 31.917969 24.511719 C 36.191406 24.511719 39.652344 21.050781 39.652344 16.777344 C 39.652344 12.503906 36.191406 9.039062 31.917969 9.039062 Z M 31.917969 9.039062 " clip-rule="nonzero"/></clipPath><clipPath id="90eb1f598a"><path d="M 6.40625 23.34375 L 21.878906 23.34375 L 21.878906 38.816406 L 6.40625 38.816406 Z M 6.40625 23.34375 " clip-rule="nonzero"/></clipPath><clipPath id="99aadad8cf"><path d="M 14.140625 23.34375 C 9.871094 23.34375 6.40625 26.808594 6.40625 31.078125 C 6.40625 35.351562 9.871094 38.816406 14.140625 38.816406 C 18.414062 38.816406 21.878906 35.351562 21.878906 31.078125 C 21.878906 26.808594 18.414062 23.34375 14.140625 23.34375 Z M 14.140625 23.34375 " clip-rule="nonzero"/></clipPath><clipPath id="34b57c87f7"><path d="M 20.824219 23.34375 L 36.292969 23.34375 L 36.292969 38.816406 L 20.824219 38.816406 Z M 20.824219 23.34375 " clip-rule="nonzero"/></clipPath><clipPath id="93b63bad77"><path d="M 28.558594 23.34375 C 24.285156 23.34375 20.824219 26.808594 20.824219 31.078125 C 20.824219 35.351562 24.285156 38.816406 28.558594 38.816406 C 32.832031 38.816406 36.292969 35.351562 36.292969 31.078125 C 36.292969 26.808594 32.832031 23.34375 28.558594 23.34375 Z M 28.558594 23.34375 " clip-rule="nonzero"/></clipPath><clipPath id="05d1609581"><path d="M 12.449219 0.710938 L 27.921875 0.710938 L 27.921875 16.183594 L 12.449219 16.183594 Z M 12.449219 0.710938 " clip-rule="nonzero"/></clipPath><clipPath id="2d69b25fd2"><path d="M 20.183594 0.710938 C 15.914062 0.710938 12.449219 4.175781 12.449219 8.445312 C 12.449219 12.71875 15.914062 16.183594 20.183594 16.183594 C 24.457031 16.183594 27.921875 12.71875 27.921875 8.445312 C 27.921875 4.175781 24.457031 0.710938 20.183594 0.710938 Z M 20.183594 0.710938 " clip-rule="nonzero"/></clipPath><clipPath id="cf0bc97bbd"><path d="M 0.257812 0 L 41.371094 0 L 41.371094 39.875 L 0.257812 39.875 Z M 0.257812 0 " clip-rule="nonzero"/></clipPath></defs><g clip-path="url(#1e5aff6e9a)"><g clip-path="url(#ffaac64ce2)"><path fill="#d8b4fe" d="M 2.085938 9.867188 L 17.558594 9.867188 L 17.558594 25.339844 L 2.085938 25.339844 Z M 2.085938 9.867188 " fill-opacity="1" fill-rule="nonzero"/></g></g><g clip-path="url(#52c784c376)"><g clip-path="url(#2d8d632c9f)"><path fill="#ff66c4" d="M 24.183594 9.039062 L 39.652344 9.039062 L 39.652344 24.511719 L 24.183594 24.511719 Z M 24.183594 9.039062 " fill-opacity="1" fill-rule="nonzero"/></g></g><g clip-path="url(#90eb1f598a)"><g clip-path="url(#99aadad8cf)"><path fill="#c1ff72" d="M 6.40625 23.34375 L 21.878906 23.34375 L 21.878906 38.816406 L 6.40625 38.816406 Z M 6.40625 23.34375 " fill-opacity="1" fill-rule="nonzero"/></g></g><g clip-path="url(#34b57c87f7)"><g clip-path="url(#93b63bad77)"><path fill="#ffde59" d="M 20.824219 23.34375 L 36.292969 23.34375 L 36.292969 38.816406 L 20.824219 38.816406 Z M 20.824219 23.34375 " fill-opacity="1" fill-rule="nonzero"/></g></g><g clip-path="url(#05d1609581)"><g clip-path="url(#2d69b25fd2)"><path fill="#68cfb7" d="M 12.449219 0.710938 L 27.921875 0.710938 L 27.921875 16.183594 L 12.449219 16.183594 Z M 12.449219 0.710938 " fill-opacity="1" fill-rule="nonzero"/></g></g><g clip-path="url(#cf0bc97bbd)"><path fill="#000000" d="M 29.714844 14.984375 L 27.855469 13.488281 C 28.628906 11.570312 29.074219 9.621094 29.074219 8.113281 C 29.074219 3.632812 25.164062 0 20.339844 0 C 16 0 12.398438 2.945312 11.722656 6.804688 C 12.335938 7.035156 12.988281 7.359375 13.652344 7.753906 C 13.855469 4.679688 16.644531 2.03125 20.339844 2.03125 C 24.183594 2.03125 27.042969 4.890625 27.042969 8.113281 C 27.042969 9.183594 26.746094 10.636719 26.195312 12.148438 L 24.796875 11.023438 C 24.390625 10.695312 23.777344 10.949219 23.726562 11.46875 L 23.128906 17.234375 C 23.078125 17.707031 23.535156 18.074219 23.992188 17.925781 L 29.503906 16.125 C 30.003906 15.960938 30.121094 15.3125 29.714844 14.984375 Z M 29.191406 27.582031 L 30.042969 25.355469 C 32.109375 25.496094 34.101562 25.316406 35.539062 24.851562 C 39.804688 23.464844 42.054688 18.628906 40.5625 14.050781 C 39.222656 9.925781 35.304688 7.414062 31.421875 7.964844 C 31.390625 8.617188 31.285156 9.335938 31.113281 10.089844 C 34.105469 9.332031 37.488281 11.164062 38.632812 14.675781 C 39.820312 18.324219 37.980469 21.925781 34.910156 22.921875 C 33.890625 23.253906 32.414062 23.417969 30.804688 23.367188 L 31.445312 21.6875 C 31.632812 21.199219 31.203125 20.699219 30.691406 20.808594 L 25.019531 22.023438 C 24.550781 22.121094 24.339844 22.671875 24.621094 23.054688 L 28.042969 27.738281 C 28.351562 28.160156 29.007812 28.070312 29.191406 27.582031 Z M 19.417969 31.101562 L 17.035156 30.980469 C 16.511719 30.957031 16.226562 30.359375 16.535156 29.9375 L 19.933594 25.242188 C 20.214844 24.855469 20.800781 24.882812 21.039062 25.296875 L 23.949219 30.3125 C 24.214844 30.761719 23.871094 31.328125 23.347656 31.300781 L 21.550781 31.210938 C 21.996094 32.757812 22.613281 34.105469 23.242188 34.972656 C 25.140625 37.582031 29.136719 38.214844 32.242188 35.960938 C 35.234375 33.789062 35.929688 30.007812 34.285156 27.402344 C 35.054688 27.332031 35.773438 27.207031 36.40625 27.039062 C 38.128906 30.554688 36.949219 35.050781 33.4375 37.601562 C 29.535156 40.433594 24.234375 39.789062 21.597656 36.164062 C 20.710938 34.945312 19.925781 33.109375 19.417969 31.101562 Z M 10.042969 20.484375 L 10.664062 22.785156 C 8.910156 23.882812 7.40625 25.199219 6.519531 26.417969 C 3.882812 30.042969 4.90625 35.277344 8.808594 38.109375 C 12.320312 40.65625 16.96875 40.390625 19.785156 37.664062 C 19.425781 37.117188 19.089844 36.472656 18.78125 35.761719 C 16.808594 38.132812 12.996094 38.640625 10.003906 36.46875 C 6.894531 34.210938 6.265625 30.21875 8.160156 27.613281 C 8.792969 26.746094 9.886719 25.746094 11.222656 24.84375 L 11.691406 26.578125 C 11.828125 27.082031 12.46875 27.234375 12.820312 26.84375 L 16.695312 22.53125 C 17.011719 22.175781 16.859375 21.609375 16.40625 21.464844 L 10.882812 19.683594 C 10.386719 19.523438 9.90625 19.980469 10.042969 20.484375 Z M 15.878906 11.898438 L 17.878906 10.597656 C 18.316406 10.3125 18.898438 10.625 18.898438 11.148438 L 18.910156 16.941406 C 18.914062 17.421875 18.421875 17.742188 17.984375 17.546875 L 12.679688 15.199219 C 12.203125 14.988281 12.148438 14.328125 12.585938 14.042969 L 14.09375 13.0625 C 12.820312 12.074219 11.53125 11.34375 10.511719 11.011719 C 7.441406 10.015625 3.835938 11.847656 2.648438 15.496094 C 1.503906 19.011719 3.167969 22.476562 6.03125 23.621094 C 5.449219 24.128906 4.941406 24.648438 4.53125 25.160156 C 1.066406 23.328125 -0.625 18.996094 0.714844 14.871094 C 2.207031 10.289062 6.871094 7.699219 11.136719 9.082031 C 12.574219 9.550781 14.292969 10.570312 15.878906 11.898438 Z M 20.835938 23.425781 C 22.085938 23.425781 23.097656 22.417969 23.097656 21.171875 C 23.097656 19.925781 22.085938 18.914062 20.835938 18.914062 C 19.589844 18.914062 18.578125 19.925781 18.578125 21.171875 C 18.578125 22.417969 19.589844 23.425781 20.835938 23.425781 Z M 20.835938 23.425781 " fill-opacity="1" fill-rule="evenodd"/></g></svg>